<?xml version="1.0" standalone="no"?>
<!DOCTYPE svg PUBLIC "-//W3C//DTD SVG 20010904//EN"
 "http://www.w3.org/TR/2001/REC-SVG-20010904/DTD/svg10.dtd">
<svg version="1.0" xmlns="http://www.w3.org/2000/svg"
 width="1772.000000pt" height="400.000000pt" viewBox="0 0 1772.000000 400.000000"
 preserveAspectRatio="xMidYMid meet">

<g transform="translate(0.000000,400.000000) scale(0.100000,-0.100000)"
fill="#000000" stroke="none">
<path d="M2899 3930 c-26 -15 -42 -66 -35 -111 13 -79 66 -162 242 -377 161
-195 239 -326 302 -502 76 -217 66 -395 -32 -527 -124 -168 -394 -236 -608
-152 -69 27 -155 75 -308 172 -204 130 -303 170 -364 148 -63 -25 -40 -82 154
-393 271 -431 354 -664 329 -916 -22 -212 -87 -389 -299 -812 -151 -302 -167
-337 -172 -380 -3 -25 -2 -25 67 -24 89 2 189 36 355 120 306 156 674 421 911
657 352 350 565 709 646 1087 26 121 26 449 0 570 -60 281 -196 554 -410 824
-152 192 -515 532 -638 599 -52 27 -110 35 -140 17z"/>
<path d="M915 3173 c-91 -48 -389 -327 -505 -473 -179 -225 -290 -454 -331
-680 -17 -93 -17 -313 0 -400 86 -444 420 -874 961 -1237 118 -79 277 -168
370 -206 94 -39 216 -65 231 -50 16 16 -15 91 -145 347 -177 350 -234 533
-223 720 9 166 76 324 270 634 157 252 168 292 80 292 -61 0 -93 -15 -290
-137 -202 -125 -266 -148 -393 -141 -71 4 -101 11 -153 36 -227 106 -268 330
-118 637 53 109 104 183 236 345 130 159 169 252 129 308 -18 27 -74 29 -119
5z"/>
<path d="M8419 3167 c-21 -14 -41 -41 -53 -70 -18 -44 -19 -51 -6 -90 28 -80
121 -111 190 -64 70 47 95 116 66 179 -33 68 -130 91 -197 45z"/>
<path d="M15679 3167 c-21 -14 -41 -41 -53 -70 -18 -44 -19 -51 -6 -90 28 -80
121 -111 190 -64 70 47 95 116 66 179 -33 68 -130 91 -197 45z"/>
<path d="M6872 3165 c-72 -16 -125 -43 -130 -68 -2 -9 8 -26 22 -38 14 -13 26
-32 26 -43 0 -26 -218 -743 -233 -767 -6 -9 -23 -24 -39 -33 -31 -19 -39 -60
-12 -70 9 -3 108 -6 220 -6 192 0 205 1 224 20 l21 21 -26 30 c-14 17 -25 35
-25 41 0 6 54 187 121 402 90 292 119 400 115 425 -14 90 -119 122 -284 86z"/>
<path d="M2727 3126 c-110 -46 -165 -109 -187 -213 -31 -144 74 -330 227 -400
153 -70 360 -17 424 108 64 126 32 288 -81 412 -73 80 -136 110 -240 114 -72
3 -94 0 -143 -21z"/>
<path d="M10316 3078 c-53 -53 -56 -106 -12 -209 7 -15 3 -15 -46 -1 -35 10
-98 15 -188 16 -119 0 -142 -3 -195 -24 -76 -30 -100 -44 -153 -94 -56 -53
-83 -106 -89 -176 -7 -74 9 -120 56 -163 l39 -35 -40 -18 c-21 -10 -51 -31
-64 -48 -21 -24 -25 -37 -22 -75 3 -25 8 -53 11 -61 6 -12 -5 -18 -52 -27 -78
-14 -117 -43 -133 -95 -10 -35 -10 -45 8 -76 43 -81 160 -122 369 -129 211 -8
370 27 468 101 110 84 117 214 14 268 -38 20 -61 23 -223 28 -188 5 -214 11
-214 51 0 29 19 33 135 30 170 -4 272 28 365 115 89 83 118 208 71 307 -12 27
-25 71 -28 98 l-6 50 27 -11 c39 -15 112 -12 146 5 60 31 44 122 -31 172 -33
22 -56 28 -110 31 -67 4 -70 3 -103 -30z m-196 -324 c26 -30 -29 -224 -76
-271 -26 -26 -66 -30 -84 -8 -15 18 -6 72 26 169 36 105 97 155 134 110z
m-120 -649 c21 -25 3 -65 -38 -82 -55 -24 -174 -23 -201 1 -21 19 -27 50 -15
80 9 23 235 24 254 1z"/>
<path d="M4832 3070 c-32 -13 -38 -38 -19 -72 9 -17 17 -39 17 -51 0 -12 -42
-171 -94 -352 -77 -268 -99 -333 -118 -348 -74 -57 -79 -65 -52 -91 13 -14 47
-16 220 -16 123 0 213 4 225 10 23 13 24 38 3 84 -17 34 -16 38 21 170 l39
136 123 0 123 0 -7 -27 c-3 -16 -21 -77 -39 -138 -29 -98 -37 -113 -73 -145
-43 -36 -54 -73 -25 -84 21 -8 408 -8 428 0 33 13 38 41 15 82 l-22 37 93 325
c51 179 98 336 106 350 7 14 29 38 48 53 43 33 47 63 10 77 -28 11 -375 12
-413 1 -38 -10 -49 -35 -28 -70 24 -40 21 -69 -17 -201 l-33 -115 -122 -3
c-95 -2 -121 0 -121 11 0 7 15 67 34 132 33 114 37 122 80 159 52 43 59 72 20
86 -32 12 -391 12 -422 0z"/>
<path d="M10943 3070 c-33 -13 -29 -52 7 -92 17 -18 33 -42 35 -53 3 -11 25
-166 50 -345 25 -179 52 -344 61 -368 30 -81 97 -96 163 -37 21 20 110 139
197 266 87 127 160 227 161 222 1 -4 11 -100 23 -213 12 -113 26 -220 31 -237
29 -91 136 -97 201 -11 13 18 104 166 202 330 174 290 178 296 197 277 72 -72
221 -4 229 106 5 66 -1 86 -33 122 -29 31 -41 37 -89 41 -73 6 -119 -10 -160
-57 -19 -20 -81 -119 -139 -220 l-104 -183 -7 39 c-3 21 -8 97 -10 168 -3 124
-2 132 20 161 29 38 26 64 -8 81 -31 15 -385 18 -424 3 -35 -13 -33 -46 5 -86
20 -21 32 -45 36 -71 5 -38 0 -48 -98 -188 l-104 -148 -7 54 c-4 30 -12 113
-19 185 -12 128 -12 132 9 162 31 42 29 80 -4 92 -32 12 -391 12 -421 0z"/>
<path d="M14630 3067 c-28 -14 -31 -42 -10 -93 12 -28 6 -57 -81 -364 -83
-295 -97 -336 -123 -359 -76 -69 -76 -69 -50 -95 13 -14 62 -16 385 -16 406 0
424 2 453 58 9 17 29 78 45 136 40 140 31 166 -56 166 -50 0 -80 -21 -153
-110 -36 -43 -77 -85 -92 -94 -33 -20 -153 -23 -146 -3 3 6 45 154 93 327 l89
315 48 47 c51 50 53 55 38 78 -13 21 -402 27 -440 7z"/>
<path d="M6113 2875 c-173 -48 -271 -156 -310 -338 -36 -170 21 -300 159 -362
54 -25 79 -30 169 -33 94 -4 112 -1 166 20 34 14 75 36 91 49 59 47 108 147
84 171 -7 7 -31 4 -74 -10 -93 -31 -132 -35 -187 -22 -56 13 -86 41 -96 88
l-7 32 114 0 c241 0 361 71 361 214 0 87 -47 146 -144 182 -63 23 -258 29
-326 9z m142 -125 c9 -27 -4 -89 -27 -131 -21 -37 -53 -59 -88 -59 -18 0 -18
2 -3 53 15 52 46 121 65 145 16 19 46 14 53 -8z"/>
<path d="M7723 2874 c-23 -8 -62 -34 -87 -57 -41 -39 -45 -41 -50 -22 -3 11
-19 34 -36 50 -27 26 -40 30 -102 33 -120 7 -258 -35 -258 -79 0 -12 11 -34
24 -50 20 -23 23 -34 17 -56 -5 -16 -54 -179 -110 -363 -99 -327 -103 -336
-141 -371 -22 -20 -40 -44 -40 -53 0 -32 36 -37 245 -34 178 3 207 5 222 20
16 17 16 19 -5 47 -12 17 -22 40 -22 51 0 30 41 170 50 170 4 0 27 -7 50 -15
23 -8 75 -15 114 -15 225 0 382 142 432 389 20 100 14 173 -20 247 -48 105
-165 149 -283 108z m-54 -202 c18 -34 -31 -246 -80 -344 -10 -20 -29 -44 -41
-52 -24 -17 -73 -21 -82 -7 -3 5 19 91 49 192 43 144 61 189 81 207 30 27 60
28 73 4z"/>
<path d="M13490 2879 c-83 -16 -169 -96 -195 -181 -16 -55 -8 -75 25 -58 20
10 25 10 35 -3 7 -9 27 -105 45 -214 18 -109 39 -215 47 -236 16 -40 53 -72
96 -82 15 -4 27 -11 27 -16 0 -14 -86 -60 -124 -66 -30 -5 -36 -3 -36 13 0 34
-42 103 -74 124 -21 13 -51 20 -81 20 -40 0 -52 -5 -81 -34 -30 -30 -34 -40
-34 -89 0 -92 60 -155 167 -177 133 -28 305 32 459 159 206 171 365 476 352
677 -7 113 -50 164 -136 164 -77 0 -128 -60 -139 -163 -7 -68 10 -126 51 -180
l34 -44 -37 -68 c-37 -71 -84 -117 -100 -99 -5 5 -23 102 -39 216 -32 228 -52
288 -107 319 -39 22 -99 29 -155 18z"/>
<path d="M17003 2875 c-173 -48 -271 -156 -310 -338 -36 -170 21 -300 159
-362 54 -25 79 -30 169 -33 94 -4 112 -1 166 20 34 14 75 36 91 49 59 47 108
147 84 171 -7 7 -31 4 -74 -10 -93 -31 -132 -35 -187 -22 -56 13 -86 41 -96
88 l-7 32 114 0 c241 0 361 71 361 214 0 87 -47 146 -144 182 -63 23 -258 29
-326 9z m142 -125 c9 -27 -4 -89 -27 -131 -21 -37 -53 -59 -88 -59 -18 0 -18
2 -3 53 15 52 46 121 65 145 16 19 46 14 53 -8z"/>
<path d="M8256 2865 c-88 -25 -134 -79 -87 -104 11 -6 22 -19 25 -29 4 -10
-25 -121 -63 -247 -68 -223 -71 -231 -110 -265 -80 -70 -55 -80 193 -80 107 0
206 4 220 10 31 12 34 40 6 65 -11 10 -20 27 -20 38 0 11 32 122 70 247 39
125 70 246 70 269 0 31 -7 48 -29 73 -29 33 -30 33 -128 35 -60 1 -117 -3
-147 -12z"/>
<path d="M8770 2864 c-102 -27 -128 -59 -86 -103 14 -15 26 -34 26 -42 0 -8
-31 -116 -69 -239 -67 -217 -71 -226 -110 -260 -46 -40 -47 -42 -25 -64 13
-14 47 -16 220 -16 123 0 213 4 225 10 25 14 24 42 -1 65 -11 10 -20 26 -20
35 0 29 96 335 115 368 22 37 53 55 86 50 38 -5 35 -36 -19 -180 -65 -171 -70
-209 -40 -268 33 -64 88 -90 187 -90 121 0 218 58 236 141 8 36 -8 60 -27 41
-17 -17 -48 -15 -48 4 0 8 23 88 50 177 65 208 65 263 2 331 -37 40 -81 56
-150 56 -84 0 -145 -24 -202 -80 l-49 -48 -13 41 c-20 64 -63 87 -157 86 -42
0 -101 -7 -131 -15z"/>
<path d="M12687 2870 c-120 -30 -190 -114 -155 -187 16 -32 62 -61 103 -63 88
-6 107 -1 146 39 34 34 39 45 39 85 0 53 12 58 55 24 25 -19 27 -26 21 -66 -5
-41 -44 -162 -52 -162 -2 0 -29 7 -61 15 -75 20 -226 20 -284 0 -98 -34 -159
-116 -159 -215 0 -71 29 -130 82 -166 38 -27 48 -29 137 -29 86 0 101 3 141
26 25 15 54 36 64 48 l19 21 19 -31 c51 -84 248 -94 338 -17 9 7 25 26 38 42
34 44 26 132 -8 91 -14 -17 -36 -20 -45 -6 -3 6 11 65 32 133 62 206 49 297
-51 365 -26 18 -64 38 -84 44 -47 15 -285 21 -335 9z m119 -424 c9 -23 -31
-102 -61 -122 -36 -23 -59 -9 -63 40 -3 29 2 42 27 66 32 33 87 41 97 16z"/>
<path d="M15516 2865 c-88 -25 -134 -79 -87 -104 11 -6 22 -19 25 -29 4 -10
-25 -121 -63 -247 -68 -223 -71 -231 -110 -265 -80 -70 -55 -80 193 -80 107 0
206 4 220 10 31 12 34 40 6 65 -11 10 -20 27 -20 38 0 11 32 122 70 247 39
125 70 246 70 269 0 31 -7 48 -29 73 -29 33 -30 33 -128 35 -60 1 -117 -3
-147 -12z"/>
<path d="M15960 2853 c-63 -32 -76 -65 -40 -98 11 -10 20 -28 20 -40 0 -12
-23 -100 -51 -196 -58 -198 -61 -244 -16 -303 42 -54 106 -80 212 -84 72 -3
102 0 152 17 131 44 258 142 344 264 158 225 119 467 -76 467 -25 0 -59 -7
-75 -15 -97 -50 -101 -226 -6 -314 14 -14 26 -32 26 -40 0 -55 -130 -203 -190
-216 -40 -9 -70 2 -70 26 0 11 23 95 50 186 69 230 66 286 -18 343 -30 21 -50
26 -121 28 -78 3 -91 1 -141 -25z"/>
<path d="M967 2556 c-115 -43 -201 -169 -201 -296 0 -72 15 -109 61 -151 100
-94 263 -91 371 6 71 64 107 140 107 225 -1 94 -41 157 -130 203 -51 26 -156
33 -208 13z"/>
<path d="M8841 1515 c-240 -67 -408 -261 -331 -383 29 -47 137 -92 154 -64 9
14 -8 30 -52 47 -50 20 -62 39 -62 95 0 54 19 88 78 142 220 198 533 175 617
-45 26 -69 17 -184 -20 -257 -60 -118 -203 -218 -327 -227 -45 -3 -68 -1 -82
10 -17 13 -18 18 -6 68 18 76 94 276 151 396 53 111 58 130 33 140 -26 10 -46
-9 -65 -63 -9 -27 -43 -112 -76 -189 -64 -148 -116 -313 -111 -349 7 -51 130
-72 239 -40 299 88 434 421 253 623 -67 75 -136 105 -248 108 -59 2 -110 -3
-145 -12z"/>
<path d="M13534 1516 c-15 -12 -17 -19 -8 -32 18 -31 72 -36 301 -32 l221 4
-18 -45 c-78 -197 -110 -276 -171 -417 -71 -165 -81 -210 -53 -221 29 -11 49
12 55 63 7 53 142 391 216 542 l46 92 74 0 c50 0 81 -5 98 -16 35 -23 70 -15
70 15 0 46 -55 48 -566 25 -143 -7 -146 -6 -152 15 -4 17 -13 21 -49 21 -24 0
-53 -6 -64 -14z"/>
<path d="M4818 1513 c-53 -5 -78 -24 -58 -48 7 -8 23 -15 36 -15 13 0 24 -4
24 -10 0 -17 -141 -391 -187 -496 l-44 -102 -44 -7 c-84 -12 -65 -48 31 -60
102 -12 180 18 105 41 l-29 9 54 135 c29 74 81 217 116 317 61 179 63 182 94
188 31 5 50 28 38 46 -5 9 -41 9 -136 2z"/>
<path d="M7832 1425 c-60 -50 -140 -243 -178 -427 -20 -97 -21 -118 -5 -175
29 -105 135 -41 232 140 29 54 33 87 10 87 -5 0 -29 -36 -53 -81 -46 -88 -102
-159 -123 -159 -12 0 -25 29 -25 61 0 8 25 47 56 85 94 117 184 326 184 427 0
66 -46 86 -98 42z m54 -29 c9 -25 -25 -136 -72 -235 -47 -100 -103 -195 -111
-187 -8 8 37 176 70 258 37 95 83 178 98 178 5 0 12 -6 15 -14z"/>
<path d="M12022 1425 c-60 -50 -140 -243 -178 -427 -20 -97 -21 -118 -5 -175
29 -105 135 -41 232 140 29 54 33 87 10 87 -5 0 -29 -36 -53 -81 -46 -88 -102
-159 -123 -159 -12 0 -25 29 -25 61 0 8 25 47 56 85 94 117 184 326 184 427 0
66 -46 86 -98 42z m54 -29 c9 -25 -25 -136 -72 -235 -47 -100 -103 -195 -111
-187 -8 8 37 176 70 258 37 95 83 178 98 178 5 0 12 -6 15 -14z"/>
<path d="M16322 1425 c-60 -50 -140 -243 -178 -427 -20 -97 -21 -118 -5 -175
29 -105 135 -41 232 140 29 54 33 87 10 87 -5 0 -29 -36 -53 -81 -46 -88 -102
-159 -123 -159 -12 0 -25 29 -25 61 0 8 25 47 56 85 94 117 184 326 184 427 0
66 -46 86 -98 42z m54 -29 c9 -25 -25 -136 -72 -235 -47 -100 -103 -195 -111
-187 -8 8 37 176 70 258 37 95 83 178 98 178 5 0 12 -6 15 -14z"/>
<path d="M7462 1398 c-39 -49 -138 -295 -181 -450 -16 -57 -19 -83 -12 -97 16
-28 101 -81 131 -81 87 0 180 144 180 277 0 44 -5 58 -25 78 -40 41 -80 32
-147 -33 -21 -20 -38 -33 -38 -29 0 16 64 166 102 238 39 76 44 109 15 109 -8
0 -19 -6 -25 -12z m58 -303 c33 -39 -15 -212 -72 -260 -38 -33 -59 -31 -98 5
-36 33 -35 39 12 133 33 65 99 137 127 137 10 0 24 -7 31 -15z"/>
<path d="M13402 1353 c-5 -10 -22 -56 -37 -103 -15 -47 -31 -88 -34 -93 -4 -4
-16 2 -26 13 -22 24 -55 26 -101 4 -80 -38 -175 -199 -182 -309 -3 -50 0 -65
18 -87 38 -49 83 -37 168 45 l52 51 0 -36 c0 -39 21 -68 49 -68 32 0 131 120
131 159 0 34 -16 24 -49 -29 -52 -84 -91 -113 -91 -67 0 33 61 250 110 391 22
65 39 125 36 132 -8 20 -34 17 -44 -3z m-124 -215 c37 -37 -5 -173 -85 -274
-74 -92 -133 -95 -133 -5 1 136 159 338 218 279z"/>
<path d="M15062 1350 c-12 -12 -22 -30 -22 -41 0 -11 -34 -121 -75 -244 -71
-212 -83 -263 -69 -278 14 -14 39 12 109 112 97 142 108 150 89 74 -35 -142
-38 -164 -28 -181 20 -32 49 -25 91 21 44 48 123 199 123 235 0 48 -30 17 -78
-81 -50 -102 -92 -159 -92 -123 0 9 12 64 26 122 25 96 25 107 11 121 -14 15
-18 15 -41 -1 -15 -9 -49 -48 -78 -86 -29 -38 -53 -68 -55 -66 -4 4 69 216
106 309 45 114 38 158 -17 107z"/>
<path d="M6738 1313 c-9 -10 -31 -53 -48 -95 l-32 -77 -62 -3 c-46 -2 -61 -7
-61 -18 0 -11 14 -16 51 -18 l52 -3 -34 -104 c-47 -145 -44 -225 9 -225 42 0
115 89 168 205 32 70 36 95 17 95 -7 0 -39 -54 -70 -120 -57 -119 -88 -154
-111 -131 -15 15 1 88 43 203 l32 87 51 3 c44 3 52 6 52 23 0 17 -6 20 -37 19
-21 -1 -38 0 -38 3 0 2 16 35 36 74 19 39 33 77 30 85 -7 19 -30 18 -48 -3z"/>
<path d="M10968 1313 c-9 -10 -31 -53 -48 -95 l-32 -77 -62 -3 c-46 -2 -61 -7
-61 -18 0 -11 14 -16 51 -18 l52 -3 -34 -104 c-47 -145 -44 -225 9 -225 42 0
115 89 168 205 32 70 36 95 17 95 -7 0 -39 -54 -70 -120 -57 -119 -88 -154
-111 -131 -15 15 1 88 43 203 l32 87 51 3 c44 3 52 6 52 23 0 17 -6 20 -37 19
-21 -1 -38 0 -38 3 0 2 16 35 36 74 19 39 33 77 30 85 -7 19 -30 18 -48 -3z"/>
<path d="M12242 1258 c-32 -32 0 -84 37 -61 24 15 21 67 -4 71 -11 1 -26 -3
-33 -10z"/>
<path d="M5041 1184 c-11 -15 -21 -37 -21 -49 0 -13 -20 -70 -45 -128 -52
-122 -71 -187 -62 -211 13 -34 42 -10 87 71 47 85 136 204 158 211 19 6 15
-17 -27 -137 -62 -181 -36 -203 63 -53 75 113 125 174 126 152 0 -8 -9 -44
-20 -80 -25 -81 -25 -131 -2 -160 14 -18 25 -21 45 -16 31 7 62 46 122 152 47
82 55 114 30 114 -18 0 -56 -58 -104 -158 -61 -126 -79 -85 -36 79 29 110 31
147 9 156 -26 10 -65 -19 -117 -87 -31 -41 -47 -56 -43 -40 18 60 18 116 2
129 -27 23 -63 4 -117 -62 -28 -34 -56 -66 -61 -72 -13 -14 5 32 42 105 33 65
36 103 9 108 -9 2 -26 -9 -38 -24z"/>
<path d="M5641 1184 c-11 -15 -21 -37 -21 -49 0 -13 -20 -70 -45 -128 -52
-122 -71 -187 -62 -211 13 -34 42 -10 87 71 47 85 136 204 158 211 19 6 15
-17 -27 -137 -62 -181 -36 -203 63 -53 75 113 125 174 126 152 0 -8 -9 -44
-20 -80 -25 -81 -25 -131 -2 -160 14 -18 25 -21 45 -16 31 7 62 46 122 152 47
82 55 114 30 114 -18 0 -56 -58 -104 -158 -61 -126 -79 -85 -36 79 29 110 31
147 9 156 -26 10 -65 -19 -117 -87 -31 -41 -47 -56 -43 -40 18 60 18 116 2
129 -27 23 -63 4 -117 -62 -28 -34 -56 -66 -61 -72 -13 -14 5 32 42 105 33 65
36 103 9 108 -9 2 -26 -9 -38 -24z"/>
<path d="M10437 1192 c-9 -10 -17 -27 -17 -37 0 -10 -13 -59 -29 -109 -37
-114 -56 -208 -48 -229 14 -36 38 -14 92 82 54 97 132 207 141 198 2 -2 -5
-42 -16 -88 -24 -103 -26 -191 -4 -213 26 -26 63 -19 99 18 43 46 100 158 92
180 -11 28 -40 4 -61 -51 -25 -66 -63 -123 -81 -123 -23 0 -19 78 11 212 22
96 25 120 14 133 -7 8 -18 15 -24 15 -17 0 -66 -54 -130 -144 -31 -43 -56 -72
-56 -65 0 7 16 55 36 105 20 51 34 101 32 111 -5 25 -31 27 -51 5z"/>
<path d="M15377 1192 c-9 -10 -17 -27 -17 -37 0 -10 -13 -59 -29 -109 -37
-114 -56 -208 -48 -229 14 -36 38 -14 92 82 54 97 132 207 141 198 2 -2 -5
-42 -16 -88 -24 -103 -26 -191 -4 -213 26 -26 63 -19 99 18 43 46 100 158 92
180 -11 28 -40 4 -61 -51 -25 -66 -63 -123 -81 -123 -23 0 -19 78 11 212 22
96 25 120 14 133 -7 8 -18 15 -24 15 -17 0 -66 -54 -130 -144 -31 -43 -56 -72
-56 -65 0 7 16 55 36 105 20 51 34 101 32 111 -5 25 -31 27 -51 5z"/>
<path d="M15849 1195 c-30 -16 -88 -100 -111 -160 -53 -136 -19 -249 80 -262
54 -7 107 12 158 59 57 52 85 121 85 208 0 72 -13 111 -50 144 -29 26 -125 33
-162 11z m130 -44 c49 -49 47 -160 -4 -248 -48 -80 -134 -116 -180 -73 -32 30
-39 82 -20 155 38 141 143 227 204 166z"/>
<path d="M16579 1195 c-30 -16 -88 -100 -111 -160 -53 -136 -19 -249 80 -262
54 -7 107 12 158 59 57 52 85 121 85 208 0 72 -13 111 -50 144 -29 26 -125 33
-162 11z m130 -44 c49 -49 47 -160 -4 -248 -48 -80 -134 -116 -180 -73 -32 30
-39 82 -20 155 38 141 143 227 204 166z"/>
<path d="M6988 1165 c-72 -49 -156 -192 -165 -281 -12 -114 63 -139 161 -54
34 30 36 31 36 10 0 -69 51 -79 109 -21 50 50 142 200 139 226 -5 36 -21 21
-73 -70 -29 -49 -67 -106 -86 -125 l-34 -35 -3 27 c-2 15 11 60 27 100 74 176
10 305 -111 223z m93 -42 c12 -32 -2 -99 -29 -141 -57 -91 -146 -170 -177
-158 -21 8 -19 72 5 123 27 61 95 158 127 182 38 28 61 26 74 -6z"/>
<path d="M8052 1165 c-35 -30 -79 -125 -94 -203 -26 -139 43 -220 136 -162 60
36 135 164 136 228 0 51 -28 37 -48 -23 -61 -180 -191 -254 -180 -102 3 38 6
42 35 48 73 15 116 74 117 162 1 76 -45 100 -102 52z m56 -56 c3 -44 -35 -113
-66 -117 -30 -5 -28 14 8 94 32 72 53 80 58 23z"/>
<path d="M9452 1165 c-35 -30 -79 -125 -94 -203 -26 -139 43 -220 136 -162 60
36 135 164 136 228 0 51 -28 37 -48 -23 -61 -180 -191 -254 -180 -102 3 38 6
42 35 48 73 15 116 74 117 162 1 76 -45 100 -102 52z m56 -56 c3 -44 -35 -113
-66 -117 -30 -5 -28 14 8 94 32 72 53 80 58 23z"/>
<path d="M9799 1166 c-105 -71 -180 -268 -135 -355 40 -77 148 -64 250 29 80
74 145 200 102 200 -9 0 -25 -14 -34 -31 -60 -111 -148 -195 -214 -205 -50 -8
-68 13 -68 81 0 41 8 68 37 124 37 72 100 141 128 141 28 0 34 -41 14 -93 -23
-58 -24 -76 -4 -84 22 -8 52 22 68 71 12 36 13 48 1 82 -7 21 -21 44 -31 51
-27 20 -75 15 -114 -11z"/>
<path d="M10142 1165 c-35 -30 -79 -125 -94 -203 -26 -139 43 -220 136 -162
60 36 135 164 136 228 0 51 -28 37 -48 -23 -61 -180 -191 -254 -180 -102 3 38
6 42 35 48 73 15 116 74 117 162 1 76 -45 100 -102 52z m56 -56 c3 -44 -35
-113 -66 -117 -30 -5 -28 14 8 94 32 72 53 80 58 23z"/>
<path d="M11170 1165 c-5 -14 -10 -32 -10 -40 0 -44 -86 -240 -126 -288 -29
-35 -31 -57 -4 -57 31 0 85 83 127 197 27 70 42 100 50 95 10 -6 8 -23 -6 -70
-40 -130 -34 -203 17 -210 32 -5 73 43 107 123 22 50 26 68 17 77 -16 16 -24
5 -51 -62 -26 -67 -46 -94 -60 -85 -17 10 -13 44 19 158 37 130 37 137 6 137
-18 0 -25 6 -28 23 -5 34 -45 36 -58 2z"/>
<path d="M11528 1165 c-72 -49 -156 -192 -165 -281 -12 -114 63 -139 161 -54
34 30 36 31 36 10 0 -69 51 -79 109 -21 50 50 142 200 139 226 -5 36 -21 21
-73 -70 -29 -49 -67 -106 -86 -125 l-34 -35 -3 27 c-2 15 11 60 27 100 74 176
10 305 -111 223z m93 -42 c12 -32 -2 -99 -29 -141 -57 -91 -146 -170 -177
-158 -21 8 -19 72 5 123 27 61 95 158 127 182 38 28 61 26 74 -6z"/>
<path d="M12812 1165 c-35 -30 -79 -125 -94 -203 -26 -139 43 -220 136 -162
60 36 135 164 136 228 0 51 -28 37 -48 -23 -61 -180 -191 -254 -180 -102 3 38
6 42 35 48 73 15 116 74 117 162 1 76 -45 100 -102 52z m56 -56 c3 -44 -35
-113 -66 -117 -30 -5 -28 14 8 94 32 72 53 80 58 23z"/>
<path d="M14302 1165 c-35 -30 -79 -125 -94 -203 -26 -139 43 -220 136 -162
60 36 135 164 136 228 0 51 -28 37 -48 -23 -61 -180 -191 -254 -180 -102 3 38
6 42 35 48 73 15 116 74 117 162 1 76 -45 100 -102 52z m56 -56 c3 -44 -35
-113 -66 -117 -30 -5 -28 14 8 94 32 72 53 80 58 23z"/>
<path d="M14659 1166 c-105 -71 -180 -268 -135 -355 40 -77 148 -64 250 29 80
74 145 200 102 200 -9 0 -25 -14 -34 -31 -60 -111 -148 -195 -214 -205 -50 -8
-68 13 -68 81 0 41 8 68 37 124 37 72 100 141 128 141 28 0 34 -41 14 -93 -23
-58 -24 -76 -4 -84 22 -8 52 22 68 71 12 36 13 48 1 82 -7 21 -21 44 -31 51
-27 20 -75 15 -114 -11z"/>
<path d="M17000 1159 c-33 -13 -65 -44 -101 -96 -64 -92 -82 -213 -39 -258 16
-17 34 -25 55 -25 34 0 98 37 127 73 17 22 18 21 18 -23 0 -58 -25 -154 -51
-197 -60 -97 -179 -76 -179 32 0 52 -24 63 -40 19 -26 -67 25 -143 103 -151
79 -9 150 50 179 148 33 111 68 297 68 363 0 61 -3 70 -29 97 -31 31 -65 36
-111 18z m78 -41 c16 -16 15 -88 -1 -107 -8 -9 -21 -37 -31 -62 -19 -54 -75
-116 -112 -125 -90 -23 -63 154 41 262 43 45 79 56 103 32z"/>
<path d="M6260 1138 c-31 -33 -88 -148 -105 -215 -19 -73 -7 -130 31 -139 26
-7 100 34 111 61 8 22 23 18 23 -6 0 -31 19 -59 39 -59 41 0 171 180 157 216
-10 26 -26 14 -55 -45 -31 -61 -77 -121 -92 -121 -21 0 -7 72 27 139 38 76 41
106 10 106 -14 0 -31 -23 -62 -85 -45 -89 -123 -178 -144 -165 -28 17 17 145
86 245 19 28 34 59 32 68 -5 26 -34 26 -58 0z"/>
<path d="M17304 1145 c-43 -29 -94 -182 -94 -281 0 -109 56 -123 139 -36 l44
46 -6 -60 c-13 -120 -70 -237 -123 -250 -51 -13 -102 74 -76 130 12 28 1 49
-24 44 -28 -5 -31 -84 -5 -142 37 -84 111 -99 177 -35 58 57 71 101 140 497 6
29 4 32 -18 32 -22 0 -27 -8 -41 -58 -18 -64 -104 -205 -132 -216 -22 -8 -35
9 -35 46 0 46 48 181 81 226 43 58 26 95 -27 57z"/>
<path d="M12215 1108 c-22 -32 -66 -173 -72 -234 -15 -136 71 -119 167 33 40
63 63 133 43 133 -16 0 -38 -30 -77 -106 -21 -39 -47 -82 -59 -95 l-22 -24 -3
33 c-4 36 16 105 55 194 26 58 25 88 -1 88 -8 0 -22 -10 -31 -22z"/>
<path d="M12492 1113 c-99 -4 -122 -17 -88 -51 16 -16 46 -14 184 14 55 11 38
-16 -51 -83 -155 -117 -200 -172 -164 -201 13 -11 233 -10 244 1 3 4 0 14 -8
23 -11 14 -27 16 -91 11 -43 -3 -78 -2 -78 3 0 12 80 82 159 140 82 59 100 90
76 126 -12 19 -23 24 -53 22 -20 -1 -79 -4 -130 -5z"/>
</g>
</svg>
